REM DIRINDEX 1\2,1\3\7,1\3\8,1\4\9,1\4\10,1\4\11,1\5\12,1\5\13,1\5\14,1\6\15,1\6\16,1\6\17
REM DIRNAME "folder01","folder02","folder03","folder04","folder05","folder06","folder07","folder08","folder09","folder10","folder11","folder12","folder13","folder14","folder15","folder16","folder17"
TITLE ""
FILE "2Q_j_1570-1583.mp3" MP3
  TRACK 01 AUDIO
    TITLE "0:"
    INDEX 01 00:00:00
  TRACK 02 AUDIO
    TITLE "9:cjc174_0929"
    INDEX 01 00:00:10
  TRACK 03 AUDIO
    TITLE "0:"
    INDEX 01 00:01:49
  TRACK 04 AUDIO
    TITLE "10:cjc174_0930"
    INDEX 01 00:02:25
  TRACK 05 AUDIO
    TITLE "0:"
    INDEX 01 00:06:46
  TRACK 06 AUDIO
    TITLE "11:cjc174_0931"
    INDEX 01 00:07:18
  TRACK 07 AUDIO
    TITLE "0:"
    INDEX 01 00:11:00
  TRACK 08 AUDIO
    TITLE "9:cjc174_0932"
    INDEX 01 00:11:49
  TRACK 09 AUDIO
    TITLE "0:"
    INDEX 01 00:12:66
  TRACK 10 AUDIO
    TITLE "10:cjc174_0933"
    INDEX 01 00:13:36
  TRACK 11 AUDIO
    TITLE "0:"
    INDEX 01 00:16:19
  TRACK 12 AUDIO
    TITLE "11:cjc174_0934"
    INDEX 01 00:16:64
  TRACK 13 AUDIO
    TITLE "0:"
    INDEX 01 00:19:37
  TRACK 14 AUDIO
    TITLE "9:cjc174_0935"
    INDEX 01 00:20:11
  TRACK 15 AUDIO
    TITLE "0:"
    INDEX 01 00:21:24
  TRACK 16 AUDIO
    TITLE "10:cjc174_0936"
    INDEX 01 00:22:00
  TRACK 17 AUDIO
    TITLE "0:"
    INDEX 01 00:24:30
  TRACK 18 AUDIO
    TITLE "11:cjc174_0937"
    INDEX 01 00:25:00
  TRACK 19 AUDIO
    TITLE "0:"
    INDEX 01 00:28:54
  TRACK 20 AUDIO
    TITLE "9:cjc174_0938"
    INDEX 01 00:29:26
  TRACK 21 AUDIO
    TITLE "0:"
    INDEX 01 00:30:49
  TRACK 22 AUDIO
    TITLE "10:cjc174_0939"
    INDEX 01 00:31:19
  TRACK 23 AUDIO
    TITLE "0:"
    INDEX 01 00:32:26
  TRACK 24 AUDIO
    TITLE "11:cjc174_0940"
    INDEX 01 00:32:73
  TRACK 25 AUDIO
    TITLE "0:"
    INDEX 01 00:36:30
  TRACK 26 AUDIO
    TITLE "9:cjc174_0941"
    INDEX 01 00:37:06
  TRACK 27 AUDIO
    TITLE "0:"
    INDEX 01 00:38:52
  TRACK 28 AUDIO
    TITLE "10:cjc174_0942"
    INDEX 01 00:39:28
  TRACK 29 AUDIO
    TITLE "0:"
    INDEX 01 00:42:30
  TRACK 30 AUDIO
    TITLE "11:cjc174_0943"
    INDEX 01 00:43:00
  TRACK 31 AUDIO
    TITLE "0:"
    INDEX 01 00:46:73
  TRACK 32 AUDIO
    TITLE "9:cjc174_0944"
    INDEX 01 00:47:49
  TRACK 33 AUDIO
    TITLE "0:"
    INDEX 01 00:49:22
  TRACK 34 AUDIO
    TITLE "10:cjc174_0945"
    INDEX 01 00:49:71
  TRACK 35 AUDIO
    TITLE "0:"
    INDEX 01 00:52:15
  TRACK 36 AUDIO
    TITLE "11:cjc174_0946"
    INDEX 01 00:52:62
  TRACK 37 AUDIO
    TITLE "0:"
    INDEX 01 00:55:21
  TRACK 38 AUDIO
    TITLE "9:cjc174_0947"
    INDEX 01 00:55:68
  TRACK 39 AUDIO
    TITLE "0:"
    INDEX 01 00:57:46
  TRACK 40 AUDIO
    TITLE "10:cjc174_0948"
    INDEX 01 00:58:16
  TRACK 41 AUDIO
    TITLE "0:"
    INDEX 01 01:00:26
  TRACK 42 AUDIO
    TITLE "11:cjc174_0949"
    INDEX 01 01:00:71
  TRACK 43 AUDIO
    TITLE "0:"
    INDEX 01 01:05:53
  TRACK 44 AUDIO
    TITLE "9:cjc174_0950"
    INDEX 01 01:06:25
  TRACK 45 AUDIO
    TITLE "0:"
    INDEX 01 01:08:12
  TRACK 46 AUDIO
    TITLE "10:cjc174_0951"
    INDEX 01 01:08:57
  TRACK 47 AUDIO
    TITLE "0:"
    INDEX 01 01:11:01
  TRACK 48 AUDIO
    TITLE "11:cjc174_0952"
    INDEX 01 01:11:46
  TRACK 49 AUDIO
    TITLE "0:"
    INDEX 01 01:15:22
  TRACK 50 AUDIO
    TITLE "9:cjc174_0953"
    INDEX 01 01:15:69
  TRACK 51 AUDIO
    TITLE "0:"
    INDEX 01 01:17:38
  TRACK 52 AUDIO
    TITLE "10:cjc174_0954"
    INDEX 01 01:18:10
  TRACK 53 AUDIO
    TITLE "0:"
    INDEX 01 01:19:47
  TRACK 54 AUDIO
    TITLE "11:cjc174_0955"
    INDEX 01 01:20:19
  TRACK 55 AUDIO
    TITLE "0:"
    INDEX 01 01:24:37
  TRACK 56 AUDIO
    TITLE "9:cjc174_0956"
    INDEX 01 01:25:10
  TRACK 57 AUDIO
    TITLE "0:"
    INDEX 01 01:27:05
  TRACK 58 AUDIO
    TITLE "10:cjc174_0957"
    INDEX 01 01:27:51
  TRACK 59 AUDIO
    TITLE "0:"
    INDEX 01 01:30:02
  TRACK 60 AUDIO
    TITLE "11:cjc174_0958"
    INDEX 01 01:30:49
  TRACK 61 AUDIO
    TITLE "0:"
    INDEX 01 01:34:37
  TRACK 62 AUDIO
    TITLE "9:cjc174_0959"
    INDEX 01 01:35:07
  TRACK 63 AUDIO
    TITLE "0:"
    INDEX 01 01:36:63
  TRACK 64 AUDIO
    TITLE "10:cjc174_0960"
    INDEX 01 01:37:37
  TRACK 65 AUDIO
    TITLE "0:"
    INDEX 01 01:39:30
  TRACK 66 AUDIO
    TITLE "11:cjc174_0961"
    INDEX 01 01:40:00
  TRACK 67 AUDIO
    TITLE "0:"
    INDEX 01 01:44:57
  TRACK 68 AUDIO
    TITLE "9:cjc174_0962"
    INDEX 01 01:45:29
  TRACK 69 AUDIO
    TITLE "0:"
    INDEX 01 01:47:06
  TRACK 70 AUDIO
    TITLE "10:cjc174_0963"
    INDEX 01 01:47:51
  TRACK 71 AUDIO
    TITLE "0:"
    INDEX 01 01:50:06
  TRACK 72 AUDIO
    TITLE "11:cjc174_0964"
    INDEX 01 01:50:48
  TRACK 73 AUDIO
    TITLE "0:"
    INDEX 01 01:55:53
  TRACK 74 AUDIO
    TITLE "9:cjc174_0965"
    INDEX 01 01:56:29
  TRACK 75 AUDIO
    TITLE "0:"
    INDEX 01 01:58:16
  TRACK 76 AUDIO
    TITLE "10:cjc174_0966"
    INDEX 01 01:58:61
  TRACK 77 AUDIO
    TITLE "0:"
    INDEX 01 02:01:45
  TRACK 78 AUDIO
    TITLE "11:cjc174_0967"
    INDEX 01 02:02:16
  TRACK 79 AUDIO
    TITLE "0:"
    INDEX 01 02:06:13
  TRACK 80 AUDIO
    TITLE "9:cjc174_0968"
    INDEX 01 02:06:58
  TRACK 81 AUDIO
    TITLE "0:"
    INDEX 01 02:08:55
  TRACK 82 AUDIO
    TITLE "10:cjc174_0969"
    INDEX 01 02:09:23
  TRACK 83 AUDIO
    TITLE "0:"
    INDEX 01 02:12:00
  TRACK 84 AUDIO
    TITLE "11:cjc174_0970"
    INDEX 01 02:12:43
  TRACK 85 AUDIO
    TITLE "0:"
    INDEX 01 02:16:63
